<svg id="Layer_1" xmlns="http://www.w3.org/2000/svg" viewBox="-283 375 44 44"><style>.st0{fill:#707070}</style><path class="st0" d="M-261.1 401c-.1 0-.3 0-.4-.1l-21-12.1c-.3-.2-.4-.4-.4-.8 0-.3.2-.6.4-.8l21-12.1c.3-.2.6-.2.9 0l21 12.1c.3.2.4.4.4.8 0 .3-.2.6-.4.8l-21 12.1c-.2.1-.3.1-.5.1zm-19.2-13l19.3 11.1 19.2-11.1-19.3-11.1-19.2 11.1z"/><path class="st0" d="M-261.1 418.8c-.1 0-.3 0-.4-.1l-21-12.1c-.3-.2-.4-.4-.4-.8V388c0-.5.4-.9.9-.9s.9.4.9.9v17.3l20.6 11.9c.4.2.6.8.3 1.2-.3.2-.6.4-.9.4z"/><path class="st0" d="M-261.1 419.1c-.5 0-.9-.4-.9-.9v-18.1c0-.5.4-.9.9-.9s.9.4.9.9v18.1c0 .5-.4.9-.9.9z"/><path class="st0" d="M-261.1 418.8c-.3 0-.6-.2-.8-.4-.2-.4-.1-.9.3-1.2l20.6-11.8v-17.3c0-.5.4-.9.9-.9s.9.4.9.9v17.8c0 .3-.2.6-.4.8l-21 12.1c-.2-.1-.3 0-.5 0zm10.5-23.8c-.2 0-.3 0-.5-.1l-19.9-12.7c-.4-.3-.5-.8-.3-1.2.3-.4.8-.5 1.2-.3l19.9 12.7c.4.3.5.8.3 1.2-.1.2-.4.4-.7.4z"/><path class="st0" d="M-250.6 401c-.5 0-.9-.4-.9-.9v-6c0-.5.4-.9.9-.9s.9.4.9.9v6c0 .5-.4.9-.9.9z"/></svg>