<?xml version="1.0" encoding="UTF-8" standalone="no"?>
<svg width="272px" height="78px" viewBox="0 0 272 78" version="1.1" xmlns="http://www.w3.org/2000/svg" xmlns:xlink="http://www.w3.org/1999/xlink" xmlns:sketch="http://www.bohemiancoding.com/sketch/ns">
    <!-- Generator: Sketch 3.5.1 (25234) - http://www.bohemiancoding.com/sketch -->
    <title>sborka-project</title>
    <desc>Created with Sketch.</desc>
    <defs></defs>
    <g id="Page-1" stroke="none" stroke-width="1" fill="none" fill-rule="evenodd" sketch:type="MSPage">
        <g id="Form" sketch:type="MSArtboardGroup" transform="translate(-198.000000, -30.000000)" fill="#1A1918">
            <g id="sborka-project" sketch:type="MSLayerGroup" transform="translate(198.000000, 30.000000)">
                <path d="M68.2876552,77.86272 L69.706,77.86272 L69.706,75.36048 L72.1724138,75.36048 L72.1724138,74.07816 L69.706,74.07816 L69.706,72.29976 L72.6838966,72.29976 L72.6838966,70.97064 L68.2876552,70.97064 L68.2876552,77.86272" id="Fill-1" sketch:type="MSShapeGroup"></path>
                <path d="M77.6888966,74.32152 C77.4221724,74.5212 76.9514828,74.61792 76.2831034,74.61792 L75.850069,74.61792 L75.850069,72.2904 L76.2831034,72.2904 C76.9452069,72.2904 77.4127586,72.38712 77.6857586,72.58368 C77.9556207,72.78024 78.0936897,73.0704 78.0936897,73.45416 C78.0936897,73.83792 77.9587586,74.12808 77.6888966,74.32152 L77.6888966,74.32152 Z M79.2107931,74.65224 C79.4084828,74.32152 79.5088966,73.92216 79.5088966,73.45416 C79.5088966,72.57432 79.2076552,71.94096 78.5988966,71.55408 C77.9932759,71.16408 77.0864138,70.97064 75.8814483,70.97064 L74.4348621,70.97064 L74.4348621,77.86272 L75.850069,77.86272 L75.850069,75.84096 L76.301931,75.84096 C76.4211724,75.84096 76.5404138,75.83784 76.6533793,75.82848 C76.7663448,75.82224 76.8793103,75.81288 76.9922759,75.8004 L78.3196207,77.86272 L79.9105517,77.86272 L78.3384483,75.42912 C78.7181379,75.2388 79.0099655,74.97984 79.2107931,74.65224 L79.2107931,74.65224 Z" id="Fill-3" sketch:type="MSShapeGroup"></path>
                <path d="M86.1613103,75.40416 C86.0734483,75.67872 85.951069,75.91584 85.7910345,76.1124 C85.6372759,76.30584 85.4458621,76.45872 85.2293448,76.56792 C85.0065517,76.674 84.764931,76.73016 84.5044828,76.73016 C84.2440345,76.73016 84.0024138,76.674 83.7827586,76.56792 C83.5631034,76.45872 83.3716897,76.30584 83.2116552,76.1124 C83.0516207,75.91584 82.9261034,75.67872 82.8382414,75.40416 C82.7503793,75.12336 82.7033103,74.81448 82.7033103,74.46504 C82.7033103,74.11872 82.7503793,73.80672 82.8382414,73.52904 C82.9261034,73.25136 83.0516207,73.01424 83.2116552,72.8208 C83.3716897,72.62112 83.5631034,72.47136 83.7827586,72.36528 C84.0024138,72.25608 84.2440345,72.20304 84.5044828,72.20304 C84.764931,72.20304 85.0065517,72.25608 85.2293448,72.36528 C85.4458621,72.47136 85.6372759,72.62112 85.7910345,72.8208 C85.951069,73.01424 86.0734483,73.25136 86.1613103,73.52904 C86.2491724,73.80672 86.2931034,74.11872 86.2931034,74.46504 C86.2931034,74.81448 86.2491724,75.12336 86.1613103,75.40416 L86.1613103,75.40416 Z M86.8077241,71.8224 C86.5127586,71.51664 86.1675862,71.2764 85.7722069,71.10792 C85.3799655,70.93632 84.9563448,70.85208 84.5044828,70.85208 C84.0526207,70.85208 83.629,70.93632 83.2304828,71.10792 C82.8351034,71.2764 82.489931,71.51664 82.1949655,71.8224 C81.9,72.1344 81.6677931,72.51192 81.5014828,72.94872 C81.3320345,73.38864 81.2504483,73.8816 81.2504483,74.42136 C81.2504483,74.96112 81.3320345,75.45408 81.5014828,75.89088 C81.6677931,76.33392 81.9,76.70832 82.1949655,77.02032 C82.489931,77.32608 82.8351034,77.56632 83.2304828,77.7348 C83.629,77.9064 84.0526207,77.99064 84.5044828,77.99064 C84.9563448,77.99064 85.3799655,77.9064 85.7722069,77.7348 C86.1675862,77.56632 86.5127586,77.32608 86.8077241,77.02032 C87.0995517,76.70832 87.3317586,76.33392 87.498069,75.89088 C87.6643793,75.45408 87.7491034,74.96112 87.7491034,74.42136 C87.7491034,73.8816 87.6643793,73.38864 87.498069,72.94872 C87.3317586,72.51192 87.0995517,72.1344 86.8077241,71.8224 L86.8077241,71.8224 Z" id="Fill-4" sketch:type="MSShapeGroup"></path>
                <path d="M93.9622069,74.88936 L90.2092414,70.92072 L89.6852069,70.92072 L89.6852069,77.86272 L91.0627586,77.86272 L91.0627586,73.85664 L94.9161379,77.91264 L95.3397586,77.91264 L95.3397586,70.97064 L93.9622069,70.97064 L93.9622069,74.88936" id="Fill-5" sketch:type="MSShapeGroup"></path>
                <path d="M97.0624828,72.29976 L99.1366552,72.29976 L99.1366552,77.86272 L100.573828,77.86272 L100.573828,72.29976 L102.635448,72.29976 L102.635448,70.97064 L97.0624828,70.97064 L97.0624828,72.29976" id="Fill-6" sketch:type="MSShapeGroup"></path>
                <path d="M103.809034,74.3808 L107.053655,74.3808 L107.053655,75.62568 L103.809034,75.62568 L103.809034,74.3808 Z" id="Fill-7" sketch:type="MSShapeGroup"></path>
                <path d="M110.602655,75.04536 L112.971793,75.04536 L112.971793,73.78488 L110.602655,73.78488 L110.602655,72.29976 L113.58369,72.29976 L113.58369,70.97064 L109.187448,70.97064 L109.187448,77.86272 L113.611931,77.86272 L113.611931,76.60224 L110.602655,76.60224 L110.602655,75.04536" id="Fill-8" sketch:type="MSShapeGroup"></path>
                <path d="M119.884655,74.88936 L116.128552,70.92072 L115.607655,70.92072 L115.607655,77.86272 L116.982069,77.86272 L116.982069,73.85664 L120.838586,77.91264 L121.262207,77.91264 L121.262207,70.97064 L119.884655,70.97064 L119.884655,74.88936" id="Fill-9" sketch:type="MSShapeGroup"></path>
                <path d="M126.970103,76.05 C126.606103,76.41816 126.066379,76.60224 125.350931,76.60224 L124.889655,76.60224 L124.889655,72.29976 L125.350931,72.29976 C126.066379,72.29976 126.606103,72.48696 126.970103,72.86136 C127.334103,73.23888 127.516103,73.76928 127.516103,74.4588 C127.516103,75.15144 127.334103,75.68184 126.970103,76.05 L126.970103,76.05 Z M127.776552,71.76624 C127.4,71.48856 126.948138,71.28888 126.424103,71.16096 C125.900069,71.03616 125.325828,70.97064 124.704517,70.97064 L123.452483,70.97064 L123.452483,77.86272 L124.704517,77.86272 C125.332103,77.86272 125.906345,77.80032 126.427241,77.67864 C126.948138,77.55384 127.4,77.35416 127.776552,77.0796 C128.153103,76.80504 128.448069,76.45248 128.655172,76.01256 C128.865414,75.57888 128.972103,75.0516 128.972103,74.43072 C128.972103,73.80672 128.865414,73.2732 128.655172,72.83952 C128.448069,72.3996 128.153103,72.04392 127.776552,71.76624 L127.776552,71.76624 Z" id="Fill-10" sketch:type="MSShapeGroup"></path>
                <path d="M137.604552,74.39952 C137.33469,74.60856 136.867138,74.71464 136.205034,74.71464 L135.715517,74.71464 L135.715517,72.2904 L136.205034,72.2904 C136.867138,72.2904 137.33469,72.39648 137.604552,72.60864 C137.877552,72.8208 138.018759,73.12032 138.018759,73.50408 C138.018759,73.88784 137.877552,74.18424 137.604552,74.39952 L137.604552,74.39952 Z M138.533379,71.56968 C137.921483,71.17032 137.011483,70.97064 135.803379,70.97064 L134.297172,70.97064 L134.297172,77.86272 L135.715517,77.86272 L135.715517,75.97512 L136.230138,75.97512 C137.262517,75.97512 138.059552,75.75984 138.614966,75.3324 C139.173517,74.9112 139.452793,74.29656 139.452793,73.50408 C139.452793,72.61488 139.148414,71.96904 138.533379,71.56968 L138.533379,71.56968 Z" id="Fill-11" sketch:type="MSShapeGroup"></path>
                <path d="M144.526828,74.32152 C144.260103,74.5212 143.789414,74.61792 143.117897,74.61792 L142.688,74.61792 L142.688,72.2904 L143.117897,72.2904 C143.78,72.2904 144.247552,72.38712 144.52369,72.58368 C144.793552,72.78024 144.928483,73.0704 144.928483,73.45416 C144.928483,73.83792 144.793552,74.12808 144.526828,74.32152 L144.526828,74.32152 Z M146.045586,74.65224 C146.243276,74.32152 146.346828,73.92216 146.346828,73.45416 C146.346828,72.57432 146.042448,71.94096 145.436828,71.55408 C144.831207,71.16408 143.921207,70.97064 142.716241,70.97064 L141.269655,70.97064 L141.269655,77.86272 L142.688,77.86272 L142.688,75.84096 L143.139862,75.84096 C143.259103,75.84096 143.375207,75.83784 143.49131,75.82848 C143.607414,75.82224 143.720379,75.81288 143.830207,75.8004 L145.154414,77.86272 L146.748483,77.86272 L145.179517,75.42912 C145.552931,75.2388 145.847897,74.97984 146.045586,74.65224 L146.045586,74.65224 Z" id="Fill-12" sketch:type="MSShapeGroup"></path>
                <path d="M152.999241,75.40416 C152.911379,75.67872 152.785862,75.91584 152.632103,76.1124 C152.472069,76.30584 152.280655,76.45872 152.064138,76.56792 C151.847621,76.674 151.599724,76.73016 151.342414,76.73016 C151.078828,76.73016 150.837207,76.674 150.62069,76.56792 C150.401034,76.45872 150.209621,76.30584 150.049586,76.1124 C149.889552,75.91584 149.764034,75.67872 149.673034,75.40416 C149.585172,75.12336 149.541241,74.81448 149.541241,74.46504 C149.541241,74.11872 149.585172,73.80672 149.673034,73.52904 C149.764034,73.25136 149.889552,73.01424 150.049586,72.8208 C150.209621,72.62112 150.401034,72.47136 150.62069,72.36528 C150.837207,72.25608 151.078828,72.20304 151.342414,72.20304 C151.599724,72.20304 151.847621,72.25608 152.064138,72.36528 C152.280655,72.47136 152.472069,72.62112 152.632103,72.8208 C152.785862,73.01424 152.911379,73.25136 152.999241,73.52904 C153.087103,73.80672 153.134172,74.11872 153.134172,74.46504 C153.134172,74.81448 153.087103,75.12336 152.999241,75.40416 L152.999241,75.40416 Z M153.642517,71.8224 C153.347552,71.51664 153.005517,71.2764 152.610138,71.10792 C152.214759,70.93632 151.794276,70.85208 151.342414,70.85208 C150.890552,70.85208 150.463793,70.93632 150.068414,71.10792 C149.669897,71.2764 149.324724,71.51664 149.029759,71.8224 C148.737931,72.1344 148.505724,72.51192 148.333138,72.94872 C148.169966,73.38864 148.085241,73.8816 148.085241,74.42136 C148.085241,74.96112 148.169966,75.45408 148.333138,75.89088 C148.505724,76.33392 148.737931,76.70832 149.029759,77.02032 C149.324724,77.32608 149.669897,77.56632 150.068414,77.7348 C150.463793,77.9064 150.890552,77.99064 151.342414,77.99064 C151.794276,77.99064 152.214759,77.9064 152.610138,77.7348 C153.005517,77.56632 153.347552,77.32608 153.642517,77.02032 C153.937483,76.70832 154.16969,76.33392 154.336,75.89088 C154.499172,75.45408 154.587034,74.96112 154.587034,74.42136 C154.587034,73.8816 154.499172,73.38864 154.336,72.94872 C154.16969,72.51192 153.937483,72.1344 153.642517,71.8224 L153.642517,71.8224 Z" id="Fill-13" sketch:type="MSShapeGroup"></path>
                <path d="M160.040759,76.05 C159.676759,76.41816 159.133897,76.60224 158.421586,76.60224 L157.96031,76.60224 L157.96031,72.29976 L158.421586,72.29976 C159.133897,72.29976 159.676759,72.48696 160.040759,72.86136 C160.401621,73.23888 160.586759,73.76928 160.586759,74.4588 C160.586759,75.15144 160.401621,75.68184 160.040759,76.05 L160.040759,76.05 Z M160.844069,71.76624 C160.470655,71.48856 160.015655,71.28888 159.494759,71.16096 C158.967586,71.03616 158.393345,70.97064 157.772034,70.97064 L156.523138,70.97064 L156.523138,77.86272 L157.772034,77.86272 C158.402759,77.86272 158.973862,77.80032 159.497897,77.67864 C160.021931,77.55384 160.470655,77.35416 160.844069,77.0796 C161.223759,76.80504 161.518724,76.45248 161.725828,76.01256 C161.932931,75.57888 162.039621,75.0516 162.039621,74.43072 C162.039621,73.80672 161.932931,73.2732 161.725828,72.83952 C161.518724,72.3996 161.223759,72.04392 160.844069,71.76624 L160.844069,71.76624 Z" id="Fill-14" sketch:type="MSShapeGroup"></path>
                <path d="M168.077,74.99544 C168.077,75.57888 167.960897,76.00944 167.731828,76.29336 C167.505897,76.57728 167.148172,76.71768 166.658655,76.71768 C166.169138,76.71768 165.814552,76.57728 165.591759,76.29336 C165.375241,76.00944 165.265414,75.57888 165.265414,74.99544 L165.265414,70.97064 L163.828241,70.97064 L163.828241,75.10464 C163.828241,76.05936 164.073,76.77696 164.565655,77.2668 C165.061448,77.75664 165.751793,78 166.639828,78 C167.518448,78 168.208793,77.75352 168.714,77.26056 C169.212931,76.7676 169.463966,76.05 169.463966,75.10464 L169.463966,70.97064 L168.077,70.97064 L168.077,74.99544" id="Fill-15" sketch:type="MSShapeGroup"></path>
                <path d="M175.319345,76.63968 C175.121655,76.68648 174.908276,76.70832 174.688621,76.70832 C174.390517,76.70832 174.123793,76.6584 173.88531,76.55232 C173.646828,76.44936 173.442862,76.29648 173.276552,76.10304 C173.107103,75.90648 172.97531,75.67248 172.890586,75.3948 C172.79331,75.114 172.749379,74.80824 172.749379,74.4588 C172.749379,73.76304 172.921966,73.21392 173.270276,72.80832 C173.618586,72.40584 174.092414,72.20304 174.707448,72.20304 C174.770207,72.20304 174.851793,72.20928 174.939655,72.21864 C175.030655,72.22488 175.127931,72.24048 175.222069,72.25608 C175.316207,72.27168 175.410345,72.29352 175.507621,72.31848 C175.601759,72.34344 175.683345,72.37152 175.758655,72.39648 L176.141483,71.11728 C176.025379,71.06424 175.833966,71.00808 175.573517,70.94256 C175.309931,70.8864 174.996138,70.85208 174.625862,70.85208 C174.183414,70.85208 173.753517,70.93008 173.355,71.08608 C172.950207,71.2452 172.595621,71.47296 172.284966,71.7756 C171.980586,72.08136 171.73269,72.45576 171.55069,72.89568 C171.365552,73.34184 171.274552,73.84728 171.274552,74.42136 C171.274552,75.00168 171.365552,75.51336 171.55069,75.9564 C171.73269,76.39944 171.980586,76.77072 172.284966,77.07024 C172.595621,77.37288 172.953345,77.59752 173.364414,77.75664 C173.772345,77.91264 174.202241,77.99064 174.657241,77.99064 C174.964759,77.99064 175.253448,77.95632 175.520172,77.88768 C175.790034,77.81904 176.003414,77.7504 176.16031,77.67864 L175.758655,76.52112 C175.664517,76.55544 175.520172,76.59288 175.319345,76.63968" id="Fill-16" sketch:type="MSShapeGroup"></path>
                <path d="M177.547276,72.29976 L179.621448,72.29976 L179.621448,77.86272 L181.058621,77.86272 L181.058621,72.29976 L183.120241,72.29976 L183.120241,70.97064 L177.547276,70.97064 L177.547276,72.29976" id="Fill-17" sketch:type="MSShapeGroup"></path>
                <path d="M184.893172,70.97064 L186.330345,70.97064 L186.330345,77.8128 L184.893172,77.8128 L184.893172,70.97064 Z" id="Fill-18" sketch:type="MSShapeGroup"></path>
                <path d="M193.227517,75.40416 C193.139655,75.67872 193.017276,75.91584 192.857241,76.1124 C192.700345,76.30584 192.512069,76.45872 192.292414,76.56792 C192.069621,76.674 191.831138,76.73016 191.567552,76.73016 C191.307103,76.73016 191.068621,76.674 190.84269,76.56792 C190.626172,76.45872 190.434759,76.30584 190.277862,76.1124 C190.11469,75.91584 189.99231,75.67872 189.904448,75.40416 C189.813448,75.12336 189.769517,74.81448 189.769517,74.46504 C189.769517,74.11872 189.813448,73.80672 189.904448,73.52904 C189.99231,73.25136 190.11469,73.01424 190.277862,72.8208 C190.434759,72.62112 190.626172,72.47136 190.84269,72.36528 C191.068621,72.25608 191.307103,72.20304 191.567552,72.20304 C191.831138,72.20304 192.069621,72.25608 192.292414,72.36528 C192.512069,72.47136 192.700345,72.62112 192.857241,72.8208 C193.017276,73.01424 193.139655,73.25136 193.227517,73.52904 C193.315379,73.80672 193.356172,74.11872 193.356172,74.46504 C193.356172,74.81448 193.315379,75.12336 193.227517,75.40416 L193.227517,75.40416 Z M193.870793,71.8224 C193.575828,71.51664 193.230655,71.2764 192.838414,71.10792 C192.443034,70.93632 192.019414,70.85208 191.567552,70.85208 C191.11569,70.85208 190.688931,70.93632 190.29669,71.10792 C189.90131,71.2764 189.553,71.51664 189.258034,71.8224 C188.966207,72.1344 188.734,72.51192 188.56769,72.94872 C188.398241,73.38864 188.316655,73.8816 188.316655,74.42136 C188.316655,74.96112 188.398241,75.45408 188.56769,75.89088 C188.734,76.33392 188.966207,76.70832 189.258034,77.02032 C189.553,77.32608 189.90131,77.56632 190.29669,77.7348 C190.688931,77.9064 191.11569,77.99064 191.567552,77.99064 C192.019414,77.99064 192.443034,77.9064 192.838414,77.7348 C193.230655,77.56632 193.575828,77.32608 193.870793,77.02032 C194.165759,76.70832 194.394828,76.33392 194.564276,75.89088 C194.733724,75.45408 194.812172,74.96112 194.812172,74.42136 C194.812172,73.8816 194.733724,73.38864 194.564276,72.94872 C194.394828,72.51192 194.165759,72.1344 193.870793,71.8224 L193.870793,71.8224 Z" id="Fill-19" sketch:type="MSShapeGroup"></path>
                <path d="M201.028414,74.88936 L197.27231,70.92072 L196.748276,70.92072 L196.748276,77.86272 L198.128966,77.86272 L198.128966,73.85664 L201.982345,77.91264 L202.402828,77.91264 L202.402828,70.97064 L201.028414,70.97064 L201.028414,74.88936" id="Fill-20" sketch:type="MSShapeGroup"></path>
                <path d="M125.372897,29.68368 C119.988207,41.68944 116.589828,44.27592 116.589828,44.27592 C113.913172,39.02808 120.709931,28.60416 123.929448,28.60416 C125.156379,28.60416 125.614517,29.14704 125.372897,29.68368 L125.372897,29.68368 Z M61.3528276,44.20416 C61.9615862,40.84392 62.7680345,38.17008 63.652931,36.03912 C64.5786207,37.05312 65.9467586,37.94232 67.9581724,38.35104 C64.839069,43.45848 60.7252414,47.66736 61.3528276,44.20416 L61.3528276,44.20416 Z M70.6065862,27.83976 C71.8115517,29.09712 71.2310345,31.7928 69.9099655,34.70688 C68.068,34.26696 66.5837586,33.40272 65.8714483,31.87704 C68.3096207,28.3608 70.6065862,27.83976 70.6065862,27.83976 L70.6065862,27.83976 Z M128.181345,24.14568 C127.867552,24.62616 127.673,25.18152 127.120724,26.1144 C127.120724,26.1144 123.819621,23.71512 122.426379,24.16128 C120.236103,24.86016 111.91431,29.09088 109.695793,43.08096 C108.675966,44.09808 106.81831,45.474 104.201276,45.474 C100.288276,45.474 98.8511034,41.28696 98.2988276,38.44464 C101.825862,36.4728 108.898759,32.24208 112.284586,28.26408 C115.127552,24.91944 108.139379,24.00216 108.139379,24.00216 C108.139379,24.00216 105.352897,30.47928 99.2684483,34.46976 C104.838276,23.18472 111.180034,10.33032 111.682103,9.28824 C112.181034,8.2524 107.263897,7.63776 105.75769,10.22424 C104.844552,11.79672 98.3207931,25.01616 92.8105862,36.21384 C90.7772069,36.2232 89.3023793,35.48064 90.5606897,32.8068 C92.2049655,29.69616 94.4736897,25.96464 94.5772414,25.65888 C94.7372759,25.18152 92.5250345,24.00216 91.8284138,24.00216 C91.5836552,24.00216 87.4917931,28.54488 84.8151379,31.54008 C86.6163103,27.88344 87.9311034,25.21896 88.1538966,24.79152 C88.5210345,24.07392 83.585069,22.71048 81.6332759,26.6292 C81.6332759,26.6292 79.7787586,30.38256 77.5884828,34.8192 C76.4023448,34.97208 75.166,35.07504 73.9484828,35.09064 C74.8992759,33.17496 75.8406552,31.21248 76.7443793,29.27496 C78.0152414,26.55744 73.9265172,23.96784 69.9538966,23.96784 C65.7239655,23.96784 55.5790345,30.90672 55.1146207,48.21648 C55.0801034,49.56744 58.8173793,51.96984 63.0127931,51.96984 C64.6696207,51.96984 68.3755172,45.94824 72.2288966,38.49144 C73.3962069,38.37288 74.6984483,38.12952 76.1418966,37.75512 C73.6472414,42.8064 71.1463103,47.892 70.6505172,48.91848 C69.5961724,51.09312 74.6262759,52.22568 74.9902759,51.48312 C77.0518966,47.30856 79.6940345,41.9328 82.0757241,37.09992 C83.3403103,35.65848 86.9834483,32.63208 86.9834483,32.63208 C86.9834483,32.63208 82.8005862,39.18096 91.4142069,39.05616 C89.4592759,43.03416 87.7177241,46.57848 86.5284483,48.98712 C85.5305862,51.01512 90.2594483,52.73112 90.7834828,51.66408 C90.9780345,51.27408 92.954931,47.26488 95.6221724,41.86728 C96.1524828,45.44904 97.5174828,51.89808 100.442034,51.89808 C103.244207,51.89808 107.154069,48.5472 109.297276,46.47864 C109.284724,46.62216 109.269034,46.75632 109.259621,46.89984 C109.043103,50.06352 113.655862,51.9948 114.37131,51.9948 C115.284448,51.9948 119.696379,45.14016 119.696379,45.14016 C119.696379,45.14016 119.683828,47.33352 120.311414,48.98712 C120.92331,50.6064 121.732897,51.9948 122.981793,51.9948 C125.259931,51.9948 126.009897,50.70312 130.672862,44.37264 C132.194759,42.31344 130.032724,39.34944 130.032724,39.34944 C130.032724,39.34944 124.889655,45.474 124.265207,45.474 C123.348931,45.474 127.277621,37.32456 127.277621,37.32456 C127.277621,37.32456 131.956276,27.83976 132.288897,27.16272 C132.938448,25.8492 128.422966,23.77752 128.181345,24.14568 L128.181345,24.14568 Z" id="Fill-21" sketch:type="MSShapeGroup"></path>
                <path d="M225.501138,27.83976 C229.549069,28.74768 222.862138,36.54768 219.319414,35.36832 C219.319414,35.36832 224.073379,27.5184 225.501138,27.83976 L225.501138,27.83976 Z M270.521034,15.26304 C269.039931,15.51576 266.943793,15.74664 264.449138,15.93384 C266.193828,12.39264 267.408207,9.91848 267.618448,9.4848 C268.117379,8.44584 263.407345,7.63776 261.904276,10.22424 C261.515172,10.89504 260.357276,13.16328 258.800862,16.25832 C243.261828,16.9104 219.783828,16.10856 214.032,11.25384 C211.92331,9.48168 210.696379,16.02744 215.252655,18.70752 C220.571448,21.83376 242.138448,21.50304 256.579207,20.71368 C254.461103,24.96624 252.029207,29.89584 249.829517,34.35432 C240.390621,44.48496 234.12731,46.86552 234.61369,44.85312 C237.287207,33.83016 242.857034,27.83976 245.172828,27.83976 C246.343276,27.83976 247.579621,30.3888 247.579621,30.3888 C248.433138,30.80376 252.616,23.97096 245.219897,23.97096 C239.524552,23.97096 234.403448,29.72424 231.240414,36.01728 C231.014483,36.24816 221.318276,45.95136 218.343517,45.474 C214.399138,44.84688 217.584138,38.41968 217.584138,38.41968 C217.584138,38.41968 218.302724,38.7972 220.47731,38.59752 C223.561897,38.31048 229.897379,33.42768 230.656759,29.3436 C231.086655,27.02856 230.493586,24.87888 227.167379,24.26736 C219.501414,22.86336 212.594828,34.94088 211.314552,41.8548 C210.213138,47.77344 212.814483,51.9948 215.644897,51.9948 C218.425103,51.9948 224.471897,47.35848 228.557483,43.15584 C227.361931,48.03552 227.845172,51.93864 230.782276,51.9948 C236.25169,52.09464 242.467931,46.254 245.696862,42.75024 C245.696862,42.75336 245.690586,42.76272 245.687448,42.76896 C242.602862,49.04016 246.553517,51.9948 250.024069,51.9948 C251.900552,51.9948 258.003828,44.10432 258.342724,43.70184 C259.861483,41.90472 257.690034,39.39 257.690034,39.39 C254.200655,43.17456 251.342,45.474 250.679897,45.474 C250.155862,45.474 250.391207,44.41632 250.501034,44.1948 C253.758207,37.61472 258.571793,27.8616 262.271414,20.35488 C265.559966,20.11776 268.060897,19.87752 269.262724,19.69656 C271.547138,19.35648 272.127655,15.08832 270.521034,15.26304 L270.521034,15.26304 Z" id="Fill-22" sketch:type="MSShapeGroup"></path>
                <path d="M147.969138,23.17848 C149.127034,22.7448 150.388483,18.67008 148.923069,19.10064 C142.94531,20.83848 137.708103,20.96016 139.195483,19.04136 C147.548655,8.2836 162.830379,6.82344 170.201379,6.82344 C179.028379,6.82344 180.079586,9.11664 179.395517,10.77648 C173.982586,23.868 163.241448,26.74776 159.187241,27.37488 C162.143172,21.38448 164.355414,16.88544 164.549966,16.47672 C165.165,15.18192 159.915241,14.6016 158.569069,17.32224 C157.398621,19.69656 143.375207,48.22896 138.643207,57.68256 C137.610828,59.75736 141.941172,62.30328 142.628379,60.9336 C142.879414,60.4344 149.964862,46.08552 156.014793,33.81144 C174.133207,28.51056 184.023966,17.58744 184.023966,10.39272 C184.023966,7.29144 181.485379,0.71136 172.121793,0.71136 C156.203069,0.71136 134.632931,9.00432 134.632931,19.45008 C134.632931,27.83976 146.814379,23.60904 147.969138,23.17848" id="Fill-24" sketch:type="MSShapeGroup"></path>
                <path d="M190.133517,44.20416 C190.591655,41.652 191.172172,39.50232 191.809172,37.67712 C193.63231,37.24656 195.728448,36.64128 198.150931,35.81448 C195.075759,41.88912 189.399241,48.2352 190.133517,44.20416 L190.133517,44.20416 Z M199.384138,27.83976 C200.291,28.78512 200.181172,30.54792 199.509655,32.604 C197.353897,33.35592 195.151069,34.02984 193.105138,34.53528 C196.010862,28.60416 199.384138,27.83976 199.384138,27.83976 L199.384138,27.83976 Z M210.015448,26.55744 C210.015448,26.55744 209.654586,27.28128 209.074069,28.46688 C207.953828,29.10336 206.573138,29.77416 205.048103,30.44496 C205.205,30.05496 205.37131,29.66496 205.521931,29.27496 C206.874379,25.82736 201.009586,23.088 197.077759,24.17688 C194.975345,24.76032 189.606345,27.81792 186.399379,35.5056 C184.318931,35.41512 183.346172,34.62264 184.337759,32.7756 C185.982034,29.67432 188.235069,25.96464 188.335483,25.65888 C188.498655,25.18152 186.286414,24.00216 185.589793,24.00216 C185.345034,24.00216 181.253172,28.54488 178.579655,31.54008 C180.37769,27.88344 181.692483,25.21896 181.915276,24.79152 C182.285552,24.07392 177.349586,22.71048 175.391517,26.6292 C175.391517,26.6292 165.45369,46.75632 164.411897,48.91848 C163.357552,51.09312 168.387655,52.22568 168.754793,51.48312 C170.813276,47.30856 173.455414,41.9328 175.837103,37.09992 C177.098552,35.65848 180.747966,32.63208 180.747966,32.63208 C180.365138,33.26544 180.201966,33.82392 180.18,34.31688 C180.01369,35.73336 180.358862,38.41968 185.329345,38.532 C184.529172,41.26824 183.995724,44.4756 183.89531,48.21648 C183.860793,49.56744 189.192138,52.69056 192.122966,51.80136 C193.384414,51.4176 199.227241,43.12152 203.567,33.80832 C204.709207,33.35592 205.920448,32.8536 207.169345,32.32008 C203.987483,38.77536 199.18331,48.52224 198.474138,49.96056 C198.27331,50.36616 195.618621,57.03672 189.044655,59.36736 C188.219379,59.65752 191.529897,65.27664 197.680241,60.23784 C200.102724,58.25352 202.49069,53.08056 202.631897,52.79976 C207.367034,43.1964 215.695103,26.23608 216.316414,25.0536 C217.035,23.67456 211.92331,23.14104 210.015448,26.55744 L210.015448,26.55744 Z" id="Fill-25" sketch:type="MSShapeGroup"></path>
                <path d="M40.0086207,43.5864 C40.0086207,43.5864 40.9876552,41.59896 42.7605862,38.00472 C43.632931,36.23256 44.542931,34.38552 45.4686207,32.5104 C45.6004138,32.2452 45.725931,31.98624 45.8608621,31.7148 C46.1213103,31.18752 51.2141724,28.98792 52.4442414,28.98792 C56.8530345,28.98792 44.7814138,43.40232 40.0086207,43.5864 L40.0086207,43.5864 Z M8.74855172,54.62808 C4.22365517,54.62808 6.10641379,47.51136 24.435069,39.2184 C23.8043448,46.5972 16.2921379,54.62808 8.74855172,54.62808 L8.74855172,54.62808 Z M56.5078621,24.00216 C52.099069,24.00216 48.1766552,27.11904 48.1766552,27.11904 C48.6724483,26.38272 49.8334828,23.71824 50.4045862,22.50144 C50.4893103,22.32984 50.5740345,22.15824 50.6587586,21.98664 C50.6650345,21.97104 50.6775862,21.9492 50.6838621,21.93984 C50.687,21.93672 50.6838621,21.93048 50.687,21.93048 C53.9473103,15.31608 56.5423793,10.05264 56.8373448,9.45984 C57.3488276,8.43024 52.3344138,7.62528 50.9411724,10.27104 C50.0531379,11.95584 45.8891034,20.3424 41.6026897,29.01912 C37.3790345,30.55104 33.535069,31.95192 30.0551034,33.24984 C27.2717586,27.0036 20.2804483,27.33744 20.2804483,20.76984 C20.2804483,11.67504 35.6029655,6.8952 40.0086207,6.8952 C42.6946897,6.8952 31.347931,22.98504 31.304,23.81808 C31.256931,24.648 34.2191379,26.60112 37.9721034,22.75728 C41.9917931,18.64824 43.6862759,15.29424 45.5533448,11.56584 C48.3461034,5.98416 45.1422759,0.71136 41.5305172,0.71136 C37.990931,0.71136 14.0642069,8.25864 14.0642069,20.08344 C14.0642069,27.7368 21.8556897,30.32952 23.9643793,35.55864 C6.20368966,42.44448 0,46.51608 0,54.054 C0,58.31904 3.27913793,61.38912 6.65241379,61.38912 C15.3727241,61.38912 31.1784828,50.45664 31.1784828,39.30888 C31.1784828,38.27304 31.1000345,37.34952 30.9713793,36.49776 C33.531931,35.51184 36.3278276,34.51968 39.3747586,33.53064 C36.9052069,38.53512 34.5768621,43.26816 33.0235862,46.43496 C32.2987241,47.91696 32.7254828,49.2336 33.5193793,50.17272 C33.5225172,50.18208 33.5131034,50.21016 33.5162414,50.22264 C33.5915517,50.37552 33.852,50.6064 34.2316897,50.84352 C34.7588621,51.23976 35.3268276,51.4956 35.810069,51.56424 C36.9962069,51.95112 38.4584828,52.10712 39.7356207,51.51432 C54.2203103,44.75952 62.5107241,24.00216 56.5078621,24.00216 L56.5078621,24.00216 Z" id="Fill-27" sketch:type="MSShapeGroup"></path>
            </g>
        </g>
    </g>
</svg>